<svg width="77" height="49" viewBox="0 0 77 49" fill="none" xmlns="http://www.w3.org/2000/svg">
<path d="M27 42H22L68.5 39C73 39.5 72.0745 46.9999 67 47H36.5C31.2687 46.9375 29.7939 45.0908 27 42Z" stroke="white" stroke-width="3"/>
<path d="M23 19H27L39.5 4L57.5 5L60.5 9.5L69 9.50505C74 10.0051 74 16.0051 71 18.5051L22 19H23Z" stroke="white" stroke-width="6"/>
<path d="M20.9995 17.8921H28.2763L64.9913 12.9307L62.3451 44.0226C61.5 46 61 47 59 47H38C32.5 46 28.5 44.5 25 42H20.9995V17.8921Z" fill="#AA7A49"/>
<path d="M50.1068 46C45.1068 46 45 38 50.1068 38C45 38 45 29.1382 50.1068 29.1382C45 29.1382 45 20 50.1068 20C45 20 44.5 9.29224 50.1068 9.29224H68.6297C73.5912 9.29224 74.4692 17.0154 70.5 19C76.8857 19 77.1076 29.6615 69.5 29C75.7845 31.3154 73.5912 38.1692 68.6297 38.5C72.5989 40.1538 71.1307 46 66.5 46H50.1068Z" fill="#E9BC86" stroke="#AA7A49" stroke-width="2" stroke-linejoin="bevel"/>
<path d="M27 19H23V34H29C37.9307 34 45.2901 27.39 45.8069 15.246H51.7607C56.7222 22.5229 61.3529 23.1844 67.6374 19.546L57.3837 4.9923L39.5224 4L27 19Z" fill="#E9BC86" stroke="#AA7A49" stroke-width="2"/>
<rect x="18" y="16" width="4" height="29" fill="#C4C4C4"/>
<rect y="14" width="18" height="33" fill="#7F5E3B"/>
</svg>
