<svg width="96" height="72" viewBox="0 0 96 72" fill="none" xmlns="http://www.w3.org/2000/svg">
<path d="M9.11667 17.7196C8.79167 17.9039 8.51667 18 8.18333 18C7.54167 18 7 17.5274 7 16.6622V7.33778C7 6.46462 7.54167 6 8.18333 6C8.51667 6 8.78333 6.09613 9.11667 6.28037L17.1667 10.8304C17.7417 11.1589 18 11.5354 18 12C18 12.4566 17.7333 12.8411 17.1667 13.1696L9.11667 17.7196Z" fill="#666666"/>
<path d="M33.1167 17.7196C32.7917 17.9039 32.5167 18 32.1833 18C31.5417 18 31 17.5274 31 16.6622V7.33778C31 6.46462 31.5417 6 32.1833 6C32.5167 6 32.7833 6.09613 33.1167 6.28037L41.1667 10.8304C41.7417 11.1589 42 11.5354 42 12C42 12.4566 41.7333 12.8411 41.1667 13.1696L33.1167 17.7196Z" fill="#333333"/>
<path d="M7 58.5714V55H10.5714M13.4286 55H17V58.5714M17 61.4286V65H13.4286M10.5714 65H7V61.4286" stroke="#666666" stroke-width="2"/>
<path d="M30 58.2857V54H34.2857M37.7143 54H42V58.2857M42 61.7143V66H37.7143M34.2857 66H30V61.7143" stroke="#333333" stroke-width="2"/>
<rect x="7" y="30" width="4" height="12" rx="1" fill="#666666"/>
<rect x="31" y="30" width="4" height="12" rx="1" fill="#333333"/>
<rect x="13" y="30" width="4" height="12" rx="1" fill="#666666"/>
<rect x="37" y="30" width="4" height="12" rx="1" fill="#333333"/>
<path d="M57.1167 17.7196C56.7917 17.9039 56.5167 18 56.1833 18C55.5417 18 55 17.5274 55 16.6622V7.33778C55 6.46462 55.5417 6 56.1833 6C56.5167 6 56.7833 6.09613 57.1167 6.28037L65.1667 10.8304C65.7417 11.1589 66 11.5354 66 12C66 12.4566 65.7333 12.8411 65.1667 13.1696L57.1167 17.7196Z" fill="#C5C5C5"/>
<path d="M81.1167 17.7196C80.7917 17.9039 80.5167 18 80.1833 18C79.5417 18 79 17.5274 79 16.6622V7.33778C79 6.46462 79.5417 6 80.1833 6C80.5167 6 80.7833 6.09613 81.1167 6.28037L89.1667 10.8304C89.7417 11.1589 90 11.5354 90 12C90 12.4566 89.7333 12.8411 89.1667 13.1696L81.1167 17.7196Z" fill="#F8F8F8"/>
<path d="M55 58.5714V55H58.5714M61.4286 55H65V58.5714M65 61.4286V65H61.4286M58.5714 65H55V61.4286" stroke="#C5C5C5" stroke-width="2"/>
<path d="M78 58.2857V54H82.2857M85.7143 54H90V58.2857M90 61.7143V66H85.7143M82.2857 66H78V61.7143" stroke="#F8F8F8" stroke-width="2"/>
<rect x="55" y="30" width="4" height="12" rx="1" fill="#C5C5C5"/>
<rect x="79" y="30" width="4" height="12" rx="1" fill="#F8F8F8"/>
<rect x="61" y="30" width="4" height="12" rx="1" fill="#C5C5C5"/>
<rect x="85" y="30" width="4" height="12" rx="1" fill="#F8F8F8"/>
</svg>
