<svg width="48" height="72" viewBox="0 0 48 72" fill="none" xmlns="http://www.w3.org/2000/svg">
<path d="M9.11667 17.7196C8.79167 17.9039 8.51667 18 8.18333 18C7.54167 18 7 17.5274 7 16.6622V7.33778C7 6.46462 7.54167 6 8.18333 6C8.51667 6 8.78333 6.09613 9.11667 6.28037L17.1667 10.8304C17.7417 11.1589 18 11.5354 18 12C18 12.4566 17.7333 12.8411 17.1667 13.1696L9.11667 17.7196Z" fill="#666666"/>
<path d="M33.1167 17.7196C32.7917 17.9039 32.5167 18 32.1833 18C31.5417 18 31 17.5274 31 16.6622V7.33778C31 6.46462 31.5417 6 32.1833 6C32.5167 6 32.7833 6.09613 33.1167 6.28037L41.1667 10.8304C41.7417 11.1589 42 11.5354 42 12C42 12.4566 41.7333 12.8411 41.1667 13.1696L33.1167 17.7196Z" fill="#333333"/>
<path d="M7 58.5714V55H10.5714M13.4286 55H17V58.5714M17 61.4286V65H13.4286M10.5714 65H7V61.4286" stroke="#666666" stroke-width="2"/>
<path d="M30 58.2857V54H34.2857M37.7143 54H42V58.2857M42 61.7143V66H37.7143M34.2857 66H30V61.7143" stroke="#333333" stroke-width="2"/>
<rect x="7" y="30" width="4" height="12" rx="1" fill="#666666"/>
<rect x="31" y="30" width="4" height="12" rx="1" fill="#333333"/>
<rect x="13" y="30" width="4" height="12" rx="1" fill="#666666"/>
<rect x="37" y="30" width="4" height="12" rx="1" fill="#333333"/>
</svg>
