<svg width="20" height="20" viewBox="0 0 20 20" version="1.1" xmlns="http://www.w3.org/2000/svg" xmlns:xlink="http://www.w3.org/1999/xlink">
<title>rotate</title>
<desc>Created using Figma</desc>
<g id="Canvas" transform="matrix(0.3125 0 0 0.3125 90.9375 84.0625)">
<clipPath id="clip-0" clip-rule="evenodd">
<path d="M -291 -269L -227 -269L -227 -205L -291 -205L -291 -269Z" fill="#FFFFFF"/>
</clipPath>
<g id="rotate" clip-path="url(#clip-0)">
<g id="Vector 2">
<use xlink:href="#path0_stroke" transform="matrix(0.866025 0.5 -0.5 0.866025 -266.451 -264.522)"/>
</g>
<g id="Vector 3">
<use xlink:href="#path1_fill" transform="matrix(0.866025 0.5 -0.5 0.866025 -249.282 -263.93)"/>
<use xlink:href="#path2_fill" transform="matrix(0.866025 0.5 -0.5 0.866025 -249.282 -263.93)"/>
<use xlink:href="#path3_stroke" transform="matrix(0.866025 0.5 -0.5 0.866025 -249.282 -263.93)"/>
</g>
</g>
</g>
<defs>
<path id="path0_stroke" d="M 10.1183 32.8942C 2.3675 27.3579 1.15038 19.4059 3.70468 13.0124C 6.30528 6.50298 12.7326 1.74349 20.4494 2.6009L 21.0016 -2.36852C 10.7189 -3.51101 2.36617 2.88568 -0.938488 11.1574C -4.28945 19.545 -2.53699 29.9992 7.21215 36.9629L 10.1183 32.8942ZM 30.8695 7.06655C 45.1317 15.7103 38.2175 38.7619 20.8899 37.6204L 20.5612 42.6096C 43.113 44.0952 52.1988 14.1468 33.461 2.79056L 30.8695 7.06655Z"/>
<path id="path1_fill" d="M 10.5 8.5L 0 0L 0 16.5L 10.5 8.5Z"/>
<path id="path2_fill" d="M 0.5 48L 10 40.5L 10 56L 0.5 48Z"/>
<path id="path3_stroke" d="M 0 0L 0.943797 -1.16587L -1.5 -3.14418L -1.5 0L 0 0ZM 10.5 8.5L 11.4091 9.69315L 12.9281 8.53575L 11.4438 7.33413L 10.5 8.5ZM 0 16.5L -1.5 16.5L -1.5 19.5286L 0.909065 17.6931L 0 16.5ZM 10 40.5L 11.5 40.5L 11.5 37.4047L 9.07053 39.3227L 10 40.5ZM 0.5 48L -0.429466 46.8227L -1.87324 47.9625L -0.466204 49.1474L 0.5 48ZM 10 56L 9.0338 57.1474L 11.5 59.2242L 11.5 56L 10 56ZM -0.943797 1.16587L 9.5562 9.66587L 11.4438 7.33413L 0.943797 -1.16587L -0.943797 1.16587ZM 9.59094 7.30685L -0.909065 15.3069L 0.909065 17.6931L 11.4091 9.69315L 9.59094 7.30685ZM 9.07053 39.3227L -0.429466 46.8227L 1.42947 49.1773L 10.9295 41.6773L 9.07053 39.3227ZM -0.466204 49.1474L 9.0338 57.1474L 10.9662 54.8526L 1.4662 46.8526L -0.466204 49.1474ZM -1.5 0L -1.5 16.5L 1.5 16.5L 1.5 0L -1.5 0ZM 8.5 40.5L 8.5 56L 11.5 56L 11.5 40.5L 8.5 40.5Z"/>
</defs>
</svg>
