<svg width="79" height="49" viewBox="0 0 79 49" fill="none" xmlns="http://www.w3.org/2000/svg">
<path d="M0 15H17V17H21V19H27L39.5 4L57.5 5L60.5 9.5L69 9.50505C74 10.0051 74 16.0051 71 18.5051C77 20.5 76.5 28.5 70.5 29.5C75 31 73.5 38 69.5 38.5C72.5 42 70 46 67 46H38C31.7706 44.8117 29.502 43.5391 26 41H21V44H17V46H0" stroke="white" stroke-width="6"/>
<path d="M20.9995 17.8921H28.2763L64.9913 12.9307L62.3452 44.0226C61.5 46 61 47 59 47H38C32.5 46 28.5 44.5 25 42H20.9995V17.8921Z" fill="#AA7A49"/>
<path d="M50.1069 46C45.1069 46 45 38 50.1069 38C45 38 45 29.1382 50.1069 29.1382C45 29.1382 45 20 50.1069 20C45 20 44.5 9.29224 50.1069 9.29224H68.6297C73.5912 9.29224 74.4692 17.0154 70.5 19C76.8857 19 77.1076 29.6615 69.5 29C75.7846 31.3154 73.5912 38.1692 68.6297 38.5C72.5989 40.1538 71.1307 46 66.5 46H50.1069Z" fill="#E9BC86" stroke="#AA7A49" stroke-width="2" stroke-linejoin="bevel"/>
<path d="M27 19H23V34H29C37.9307 34 45.2901 27.39 45.8069 15.246H51.7607C56.7222 22.5229 61.3529 23.1844 67.6374 19.546L57.3837 4.9923L39.5224 4L27 19Z" fill="#E9BC86" stroke="#AA7A49" stroke-width="2"/>
<rect x="18" y="16" width="4" height="29" fill="#C4C4C4"/>
<rect y="14" width="18" height="33" fill="#7F5E3B"/>
</svg>
